<?xml version="1.0" encoding="UTF-8" standalone="no"?><!DOCTYPE svg PUBLIC "-//W3C//DTD SVG 1.1//EN" "http://www.w3.org/Graphics/SVG/1.1/DTD/svg11.dtd"><svg width="100%" height="100%" viewBox="0 0 320 320" version="1.1" xmlns="http://www.w3.org/2000/svg" xmlns:xlink="http://www.w3.org/1999/xlink" xml:space="preserve" xmlns:serif="http://www.serif.com/" style="fill-rule:evenodd;clip-rule:evenodd;stroke-linejoin:round;stroke-miterlimit:1.41421;"><circle cx="160.406" cy="160.767" r="154.047" style="fill:#ffbe00;"/><path d="M69.949,165.071c0,0 -16.402,-79.54 32.375,-97.906c48.777,-18.366 104.438,-7.546 114.564,-4.116c10.125,3.43 46.261,29.708 43.459,87.49l-8.819,6.026l-3.833,-1.758l-9.841,4.725c0,0 -8.335,-1.162 -11.553,-3.175c-3.217,-2.013 -21.4,1.93 -21.4,1.93l-20.536,-3.626c0,0 -9.548,4.799 -14.255,3.925c-4.707,-0.874 -12.249,-1.602 -12.249,-1.602l-7.734,-2.967c0,0 -8.654,6.861 -10.115,6.312c-1.462,-0.548 -11.955,-4.765 -11.955,-4.765l-4.446,4.699c0,0 -12.756,-4.681 -14.141,-3.785c-1.384,0.895 -1.707,3.66 -1.707,3.66l-12.333,-3.983c0,0 -7.604,6.363 -8.726,6.631c-1.122,0.268 -6.848,-2.753 -6.848,-2.753c0,0 -10.25,5.032 -9.907,5.038Z"/><path d="M74.766,158.368c0,0 -15.233,-70.811 30.705,-87.313c45.938,-16.502 98.28,-7.023 107.798,-3.997c9.518,3.027 43.45,26.332 40.669,77.815l-6.528,5.382l-5.386,-1.543l-7.292,4.463c0,0 -10.937,-3.634 -11.968,-3.386c-3.564,0.857 -19.868,2.25 -19.868,2.25l-20.456,-3.275c0,0 -7.806,4.693 -12.232,3.927c-4.427,-0.765 -12.058,-1.623 -12.058,-1.623l-7.921,-2.779c0,0 -8.159,6.137 -9.533,5.653c-1.374,-0.485 -11.236,-4.211 -11.236,-4.211l-4.194,4.199c0,0 -11.99,-4.133 -13.295,-3.331c-1.304,0.801 -5.172,3.562 -5.172,3.562l-8.037,-3.809c0,0 -7.17,5.69 -8.226,5.932c-1.056,0.242 -6.436,-2.433 -6.436,-2.433c0,0 -9.657,4.513 -9.334,4.517Z" style="fill:#ffbe00;"/><path d="M216.257,150.221c0,0 4.585,-53.333 -3.02,-78.171c0,0 5.204,64.878 -2.707,76.657c-7.911,11.778 5.727,1.514 5.727,1.514Z"/><path d="M244.114,150.631c0,0 9.346,-23.565 -3.428,-53.996c-12.774,-30.431 10.175,43.503 0.883,53.599c-9.293,10.096 2.545,0.397 2.545,0.397Z"/><path d="M107.309,76.143c0,0 -21.519,10.927 -23.461,38.438c-0.663,9.396 0.957,20.728 6.499,34.22c1.227,2.985 0,0 0,0c0,0 -14.806,-49.506 16.962,-72.658Z"/><path d="M128.468,69.164c0,0 -49.499,20.27 -27.465,82.829c1.513,4.293 0,0 0,0c0,0 -13.383,-57.31 27.465,-82.829Z"/><path d="M145.26,65.63c0,0 -40.918,30.304 -33.154,85.201c0,0 6.212,10.687 14.193,2.505c-13.55,-23.45 -9.974,-35.46 -10.157,-38.049c-0.621,-8.799 14.756,-33.979 29.118,-49.657Z"/><path d="M183.496,149.75c0,0 -14.379,-29.797 -10.823,-34.257l10.823,34.257Z"/><path d="M151.624,150.769c0,0 -8.811,-70.895 3.356,-81.6l-7.898,83.94l4.542,-2.34Z"/><path d="M162.342,66.98c0,0 46.997,1.385 40.916,24.806c-6.3,-21.502 -31.003,-21.656 -40.916,-24.806Z"/><path d="M117.06,159.194l6.276,1.754l2.53,-2.409c0,0 -8.441,-14.603 -12.109,-32.146c-1.731,22.589 3.303,32.801 3.303,32.801Z" style="fill:#ffbe00;"/><g><g><path d="M161.079,175.664c0,-7.794 -6.327,-14.121 -14.12,-14.121l-32.771,0c-7.793,0 -14.12,6.327 -14.12,14.121l0,28.24c0,7.793 6.327,14.12 14.12,14.12l32.771,0c7.793,0 14.12,-6.327 14.12,-14.12l0,-28.24Z"/><path d="M154.713,178.61c0,-6.167 -5.006,-11.173 -11.173,-11.173l-25.932,0c-6.167,0 -11.174,5.006 -11.174,11.173l0,22.347c0,6.167 5.007,11.174 11.174,11.174l25.932,0c6.167,0 11.173,-5.007 11.173,-11.174l0,-22.347Z" style="fill:#78660e;"/></g><g><path d="M237.99,175.353c0,-7.793 -6.327,-14.12 -14.12,-14.12l-32.771,0c-7.793,0 -14.12,6.327 -14.12,14.12l0,28.241c0,7.793 6.327,14.12 14.12,14.12l32.771,0c7.793,0 14.12,-6.327 14.12,-14.12l0,-28.241Z"/><path d="M231.624,178.3c0,-6.167 -5.007,-11.174 -11.174,-11.174l-25.932,0c-6.166,0 -11.173,5.007 -11.173,11.174l0,22.347c0,6.167 5.007,11.173 11.173,11.173l25.932,0c6.167,0 11.174,-5.006 11.174,-11.173l0,-22.347Z" style="fill:#78660e;"/></g></g><path d="M168.099,189.745c0,0 -14.654,46.558 -15.13,67.329c-0.035,1.501 20.41,-1.976 25.696,-7.092c5.286,-5.116 -15.386,-2.659 -15.386,-2.659l8.537,-56.442l-3.717,-1.136Z"/><path d="M159.194,185.928c0,0 9.594,-5.562 20.242,0l0.683,-7.054c0,0 -12.713,-6.004 -21.415,0.735l0.49,6.319Z"/></svg>