<?xml version="1.0" encoding="UTF-8" standalone="no"?><!DOCTYPE svg PUBLIC "-//W3C//DTD SVG 1.1//EN" "http://www.w3.org/Graphics/SVG/1.1/DTD/svg11.dtd"><svg width="100%" height="100%" viewBox="0 0 320 320" version="1.1" xmlns="http://www.w3.org/2000/svg" xmlns:xlink="http://www.w3.org/1999/xlink" xml:space="preserve" xmlns:serif="http://www.serif.com/" style="fill-rule:evenodd;clip-rule:evenodd;stroke-linejoin:round;stroke-miterlimit:1.41421;"><ellipse cx="155.973" cy="158.497" rx="150.533" ry="150.529" style="fill:#22993b;"/><path d="M317.11,136.359c0,0 -257.261,22.093 -257.507,15.643c-0.898,-23.449 -10.609,-108.453 69.436,-113.654c118.322,-7.688 108.027,94.265 108.027,94.265l75.57,-6.001c0,0 5.532,-0.646 4.474,9.747Z"/><path d="M231.83,132.845l-37.601,1.912c0,0 -6.495,-80.512 -43.404,-90.928c0,0 40.643,-6.448 65.713,30.893c19.801,29.492 15.292,58.123 15.292,58.123Z" style="fill:#229a36;"/><path d="M179.089,89.883c8.733,33.109 6.588,45.871 6.588,45.871c0,0 -76.644,8.145 -77.191,6.925c-16.501,-36.807 -2.03,-95.977 24.794,-96.819c16.976,-0.532 37.075,10.914 45.809,44.023Z" style="fill:#229a36;"/><path d="M102.847,144.673c0,0 -33.024,4.236 -38.111,2.253c-0.281,-11.341 -5.748,-66.584 19.652,-87.727c0,0 19.581,-16.278 37.258,-15.808c0,0 -41.761,24.297 -18.799,101.282Z" style="fill:#229a36;"/><path d="M146.467,49.48c1.11,0.132 1.905,1.141 1.772,2.252c-0.132,1.11 -1.141,1.904 -2.252,1.772c-1.11,-0.132 -1.904,-1.142 -1.772,-2.252c0.132,-1.111 1.141,-1.905 2.252,-1.772Z"/><path d="M123.879,50.695c1.131,0.135 1.948,1.081 1.825,2.112c-0.122,1.032 -1.14,1.759 -2.27,1.625c-1.13,-0.135 -1.948,-1.082 -1.825,-2.113c0.123,-1.031 1.14,-1.759 2.27,-1.624Z"/><path d="M111.131,46.127c1.13,0.135 1.948,1.082 1.825,2.113c-0.122,1.031 -1.14,1.759 -2.27,1.624c-1.13,-0.135 -1.948,-1.081 -1.825,-2.112c0.122,-1.032 1.14,-1.759 2.27,-1.625Z"/><path d="M140.387,39.888c0,0 3.141,-2.321 0.093,-3.959c-3.048,-1.639 -10.988,-0.556 -10.857,1.641c0.073,1.231 -1.051,5.155 10.764,2.318"/><path d="M260.013,147.363l3.545,12.117l-40.729,5.124c0,0 -1.804,38.445 -3.073,42.117c-0.965,2.792 -2.158,18.648 -33.538,20.24c-17.177,0.871 -23.951,-6.292 -29.48,-12.281c-4.571,-4.951 -10.393,-20.19 -10.393,-20.19c0,0 2.981,35.982 -38.16,35.085c-41.142,-0.897 -45.728,-33.107 -46.418,-36.501c-1.473,-7.237 1.484,-28.596 1.484,-28.596l196.762,-17.115Z"/><path d="M66.754,170.813l149.64,-11.275l-0.568,34.563c0,0 1.598,31.592 -33.543,29.109c-31.867,-2.251 -34.717,-47.3 -34.717,-47.3l-4.454,0.816c0,0 5.446,53.55 -37.172,48.297c-52.947,-6.525 -39.186,-54.21 -39.186,-54.21Z" style="fill:#c6e48c;"/><path d="M204.168,158.814l-31.323,63.415l-7,-2.536l30.978,-62.134l7.345,1.255Z"/><path d="M125.583,164.711l-28.132,61.756l-6.63,-2.554l28.197,-60.711l6.565,1.509Z"/><path d="M114.933,163.745l-27.141,58.899l-4.857,-2.99l27.151,-56.254l4.847,0.345Z"/><path d="M217.051,154.552l-38.937,70.262l-3.693,-0.795l36.957,-70.891l5.673,1.424Z"/><path d="M140.318,209.829c0,0 -31.725,29.073 -12.932,43.097c8.926,6.661 16.708,-5.295 16.708,-5.295c-3.799,5.362 6.423,-7.219 10.958,-11.84c3.754,-3.826 8.942,-4.933 7.992,-7.302c-5.932,-14.796 -22.294,22.339 -32.026,18.656c-14.084,-5.329 12.131,-35.747 12.131,-35.747c0,0 -3.362,-1.11 -2.831,-1.569Z"/><path d="M162.04,44.347c1.013,0.121 1.752,0.913 1.65,1.769c-0.101,0.856 -1.007,1.452 -2.02,1.332c-1.013,-0.121 -1.753,-0.914 -1.651,-1.77c0.102,-0.855 1.007,-1.452 2.021,-1.331Z"/></svg>