<?xml version="1.0" encoding="UTF-8" standalone="no"?><!DOCTYPE svg PUBLIC "-//W3C//DTD SVG 1.1//EN" "http://www.w3.org/Graphics/SVG/1.1/DTD/svg11.dtd"><svg width="100%" height="100%" viewBox="0 0 1050 375" version="1.1" xmlns="http://www.w3.org/2000/svg" xmlns:xlink="http://www.w3.org/1999/xlink" xml:space="preserve" xmlns:serif="http://www.serif.com/" style="fill-rule:evenodd;clip-rule:evenodd;stroke-linejoin:round;stroke-miterlimit:1.41421;"><g><path d="M155.998,6.354c97.043,-15.522 190.008,49.61 207.47,145.356c17.462,95.746 -47.148,186.081 -144.191,201.602c-97.044,15.522 -190.008,-49.611 -207.47,-145.356c-17.463,-95.746 47.147,-186.081 144.191,-201.602Z" style="fill:#e62f00;"/><path d="M57.081,193.795l271.957,-25.238l-1.108,-9.919c0,0 -32.507,4.509 -32.754,2.91c-0.247,-1.598 -86.064,-117.109 -90.827,-117.936c-4.763,-0.826 -99.33,2.658 -103.128,4.383c-3.797,1.726 -13.258,11.823 -13.258,11.823c0,0 1.06,22.698 1.556,25.087c1.14,5.48 -64.064,-47.431 -66.381,-48.872c-2.318,-1.441 -18.069,65.16 69.704,84.877c0,0 11.116,60.126 4.577,62.48c-7.689,2.767 -32.002,1.598 -41.078,2.545c-0.207,0.022 0.74,7.86 0.74,7.86Z"/><path d="M284.864,162.409c0,0 -168.619,19.586 -172.45,18.416c-3.831,-1.17 -7.679,-43.922 -6.673,-43.726c1.006,0.196 143.93,-13.977 151.864,-9.804c8.165,4.295 26.498,35.792 27.259,35.114Z" style="fill:#f04d00;"/><path d="M113.127,112.02c0,0 -68.455,3.467 -84.458,-58.915c0,0 82.869,59.109 84.458,58.915Z" style="fill:#e62f00;"/><path d="M104.82,121.53l0.873,6.533l24.037,-0.375c0,0 -11.745,-7.861 -11.819,-7.886c-0.074,-0.025 -13.091,1.728 -13.091,1.728Z" style="fill:#e62f00;"/><circle cx="274.944" cy="224.969" r="31.121"/><circle cx="199.098" cy="236.042" r="34.76"/><path d="M100.083,93.05c0,0 29.455,21.384 42.138,31.846c4.276,3.527 100.029,-4.649 106.42,-8.448c4.614,-2.741 -41.635,-60.917 -47.447,-64.248c-2.737,-1.569 -92.924,2.629 -97.262,4.775c-4.338,2.145 -6.922,5.117 -8.229,7.107c-1.308,1.989 4.38,28.968 4.38,28.968Z" style="fill:#e62f00;"/><circle cx="274.83" cy="225.281" r="19.677" style="fill:#f04d00;"/><path d="M200.257,212.672c12.891,-0.971 24.145,8.705 25.117,21.596c0.972,12.89 -8.705,24.145 -21.596,25.116c-12.89,0.972 -24.145,-8.705 -25.116,-21.595c-0.972,-12.891 8.705,-24.145 21.595,-25.117Z" style="fill:#f04d00;"/><path d="M166.133,230.256l-78.324,-2.107l-1.386,7.83l80.459,5.912l-0.749,-11.635Z"/><path d="M242.535,244.089l25.862,56.494c0,0 -33.44,-2.978 -39.814,-3.113c-3.749,-0.078 -2.406,-6.985 -2.406,-6.985c0,0 2.461,-5.099 10.034,-4.567c8.184,0.574 18.817,9.109 20.969,5.824c-4.977,-15.297 -19.985,-38.582 -19.985,-38.582l5.34,-9.071Z"/></g><circle cx="517.313" cy="196.555" r="177.417" style="fill:#ffbe00;"/><path d="M413.133,201.512c0,0 -18.89,-91.606 37.287,-112.759c56.177,-21.153 120.283,-8.691 131.944,-4.741c11.662,3.951 53.279,34.216 50.053,100.763l-10.157,6.941l-4.415,-2.025l-11.334,5.442c0,0 -9.6,-1.339 -13.305,-3.657c-3.706,-2.318 -24.647,2.223 -24.647,2.223l-23.652,-4.176c0,0 -10.996,5.528 -16.417,4.52c-5.421,-1.007 -14.108,-1.845 -14.108,-1.845l-8.906,-3.417c0,0 -9.967,7.902 -11.651,7.27c-1.683,-0.632 -13.768,-5.488 -13.768,-5.488l-5.12,5.412c0,0 -14.692,-5.391 -16.286,-4.36c-1.595,1.032 -1.967,4.215 -1.967,4.215l-14.204,-4.586c0,0 -8.757,7.328 -10.049,7.636c-1.293,0.309 -7.887,-3.171 -7.887,-3.171c0,0 -11.805,5.797 -11.411,5.803Z"/><path d="M418.681,193.792c0,0 -17.543,-81.553 35.364,-100.559c52.907,-19.005 113.19,-8.089 124.151,-4.603c10.962,3.486 50.042,30.327 46.84,89.62l-7.519,6.199l-6.203,-1.778l-8.399,5.14c0,0 -12.596,-4.184 -13.782,-3.899c-4.105,0.987 -22.883,2.591 -22.883,2.591l-23.559,-3.771c0,0 -8.991,5.404 -14.089,4.523c-5.098,-0.882 -13.886,-1.87 -13.886,-1.87l-9.123,-3.2c0,0 -9.397,7.067 -10.979,6.509c-1.583,-0.557 -12.941,-4.849 -12.941,-4.849l-4.83,4.836c0,0 -13.81,-4.76 -15.312,-3.837c-1.503,0.924 -5.957,4.103 -5.957,4.103l-9.257,-4.387c0,0 -8.257,6.553 -9.474,6.832c-1.216,0.278 -7.412,-2.802 -7.412,-2.802c0,0 -11.121,5.198 -10.75,5.202Z" style="fill:#ffbe00;"/><path d="M581.638,184.409c0,0 5.28,-61.423 -3.478,-90.03c0,0 5.994,74.721 -3.118,88.286c-9.111,13.566 6.596,1.744 6.596,1.744Z"/><path d="M613.721,184.882c0,0 10.764,-27.14 -3.948,-62.188c-14.711,-35.047 11.719,50.102 1.016,61.73c-10.702,11.628 2.932,0.458 2.932,0.458Z"/><path d="M456.161,99.093c0,0 -24.783,12.585 -27.02,44.269c-0.764,10.822 1.102,23.873 7.485,39.412c1.413,3.438 0,0 0,0c0,0 -17.052,-57.016 19.535,-83.681Z"/><path d="M480.531,91.056c0,0 -57.009,23.345 -31.632,95.394c1.742,4.944 0,0 0,0c0,0 -15.413,-66.004 31.632,-95.394Z"/><path d="M499.87,86.985c0,0 -47.125,34.902 -38.184,98.126c0,0 7.155,12.309 16.347,2.886c-15.606,-27.008 -11.488,-40.84 -11.698,-43.821c-0.715,-10.135 16.994,-39.135 33.535,-57.191Z"/><path d="M543.907,183.867c0,0 -16.561,-34.318 -12.466,-39.454l12.466,39.454Z"/><path d="M507.2,185.041c0,0 -10.148,-81.651 3.864,-93.98l-9.096,96.675l5.232,-2.695Z"/><path d="M519.543,88.54c0,0 54.127,1.594 47.124,28.569c-7.256,-24.763 -35.706,-24.941 -47.124,-28.569Z"/><path d="M467.392,194.743l7.228,2.021l2.913,-2.775c0,0 -9.721,-16.818 -13.945,-37.023c-1.994,26.016 3.804,37.777 3.804,37.777Z" style="fill:#ffbe00;"/><g><path d="M518.089,213.712c0,-8.976 -7.287,-16.263 -16.262,-16.263l-37.743,0c-8.975,0 -16.262,7.287 -16.262,16.263l0,32.525c0,8.975 7.287,16.262 16.262,16.262l37.743,0c8.975,0 16.262,-7.287 16.262,-16.262l0,-32.525Z"/><path d="M510.757,217.106c0,-7.103 -5.766,-12.869 -12.868,-12.869l-29.866,0c-7.103,0 -12.869,5.766 -12.869,12.869l0,25.737c0,7.102 5.766,12.868 12.869,12.868l29.866,0c7.102,0 12.868,-5.766 12.868,-12.868l0,-25.737Z" style="fill:#78660e;"/></g><g><path d="M606.668,213.354c0,-8.975 -7.287,-16.262 -16.263,-16.262l-37.742,0c-8.975,0 -16.262,7.287 -16.262,16.262l0,32.525c0,8.976 7.287,16.262 16.262,16.262l37.742,0c8.976,0 16.263,-7.286 16.263,-16.262l0,-32.525Z"/><path d="M599.336,216.748c0,-7.102 -5.766,-12.869 -12.869,-12.869l-29.866,0c-7.102,0 -12.868,5.767 -12.868,12.869l0,25.737c0,7.103 5.766,12.869 12.868,12.869l29.866,0c7.103,0 12.869,-5.766 12.869,-12.869l0,-25.737Z" style="fill:#78660e;"/></g><path d="M526.174,229.929c0,0 -16.878,53.622 -17.426,77.545c-0.039,1.727 23.506,-2.277 29.595,-8.169c6.088,-5.892 -17.72,-3.063 -17.72,-3.063l9.832,-65.004l-4.281,-1.309Z"/><path d="M515.918,225.533c0,0 11.049,-6.406 23.312,0l0.787,-8.124c0,0 -14.642,-6.914 -24.664,0.847l0.565,7.277Z"/><ellipse cx="851.481" cy="184.819" rx="182.826" ry="182.821" style="fill:#22993b;"/><path d="M1047.18,157.931c0,0 -312.448,26.833 -312.748,18.999c-1.09,-28.479 -12.884,-131.719 84.332,-138.035c143.705,-9.337 131.201,114.486 131.201,114.486l91.781,-7.288c0,0 6.72,-0.784 5.434,11.838Z"/><path d="M943.61,153.663l-45.666,2.323c0,0 -7.889,-97.784 -52.715,-110.435c0,0 49.362,-7.83 79.81,37.521c24.048,35.818 18.571,70.591 18.571,70.591Z" style="fill:#229a36;"/><path d="M879.555,101.485c10.607,40.212 8.001,55.712 8.001,55.712c0,0 -93.084,9.892 -93.749,8.41c-20.041,-44.703 -2.466,-116.566 30.113,-117.588c20.617,-0.647 45.029,13.254 55.635,53.466Z" style="fill:#229a36;"/><path d="M786.958,168.029c0,0 -40.108,5.145 -46.286,2.737c-0.342,-13.774 -6.982,-80.869 23.868,-106.547c0,0 23.781,-19.77 45.25,-19.199c0,0 -50.72,29.51 -22.832,123.009Z" style="fill:#229a36;"/><path d="M839.936,52.415c1.348,0.16 2.313,1.386 2.152,2.735c-0.161,1.348 -1.386,2.313 -2.735,2.152c-1.349,-0.161 -2.313,-1.386 -2.152,-2.735c0.16,-1.349 1.386,-2.313 2.735,-2.152Z"/><path d="M812.502,53.891c1.373,0.164 2.366,1.313 2.217,2.565c-0.149,1.253 -1.385,2.137 -2.758,1.973c-1.372,-0.164 -2.366,-1.313 -2.216,-2.566c0.149,-1.252 1.385,-2.136 2.757,-1.972Z"/><path d="M797.019,48.343c1.373,0.164 2.367,1.313 2.217,2.566c-0.149,1.252 -1.385,2.136 -2.757,1.972c-1.373,-0.163 -2.366,-1.313 -2.217,-2.565c0.149,-1.252 1.385,-2.136 2.757,-1.973Z"/><path d="M832.552,40.766c0,0 3.814,-2.82 0.112,-4.809c-3.702,-1.99 -13.345,-0.676 -13.186,1.993c0.089,1.496 -1.276,6.261 13.074,2.816"/><path d="M977.839,171.296l4.306,14.716l-49.466,6.223c0,0 -2.191,46.693 -3.732,51.152c-1.172,3.391 -2.621,22.649 -40.733,24.583c-20.861,1.058 -29.089,-7.643 -35.803,-14.915c-5.553,-6.014 -12.623,-24.523 -12.623,-24.523c0,0 3.62,43.702 -46.347,42.612c-49.967,-1.09 -55.537,-40.209 -56.376,-44.331c-1.789,-8.789 1.803,-34.73 1.803,-34.73l238.971,-20.787Z"/><path d="M743.122,199.776l181.742,-13.693l-0.691,41.978c0,0 1.942,38.368 -40.738,35.353c-38.703,-2.734 -42.164,-57.447 -42.164,-57.447l-5.41,0.991c0,0 6.614,65.038 -45.146,58.658c-64.305,-7.925 -47.593,-65.84 -47.593,-65.84Z" style="fill:#c6e48c;"/><path d="M910.015,185.204l-38.043,77.018l-8.501,-3.08l37.623,-75.462l8.921,1.524Z"/><path d="M814.571,192.366l-34.167,75.003l-8.052,-3.101l34.246,-73.735l7.973,1.833Z"/><path d="M801.637,191.193l-32.964,71.533l-5.898,-3.631l32.975,-68.321l5.887,0.419Z"/><path d="M925.662,180.028l-47.291,85.334l-4.485,-0.966l44.886,-86.098l6.89,1.73Z"/><path d="M832.468,247.163c0,0 -38.531,35.309 -15.707,52.342c10.841,8.09 20.293,-6.431 20.293,-6.431c-4.614,6.512 7.8,-8.768 13.308,-14.38c4.56,-4.647 10.861,-5.991 9.707,-8.868c-7.205,-17.971 -27.077,27.131 -38.897,22.658c-17.105,-6.473 14.734,-43.416 14.734,-43.416c0,0 -4.084,-1.348 -3.438,-1.905Z"/><path d="M858.849,46.181c1.23,0.146 2.129,1.109 2.005,2.148c-0.124,1.04 -1.224,1.764 -2.454,1.618c-1.231,-0.147 -2.129,-1.11 -2.005,-2.149c0.124,-1.039 1.223,-1.764 2.454,-1.617Z"/></svg>