<?xml version="1.0" encoding="UTF-8" standalone="no"?><!DOCTYPE svg PUBLIC "-//W3C//DTD SVG 1.1//EN" "http://www.w3.org/Graphics/SVG/1.1/DTD/svg11.dtd"><svg width="100%" height="100%" viewBox="0 0 1100 1000" version="1.1" xmlns="http://www.w3.org/2000/svg" xmlns:xlink="http://www.w3.org/1999/xlink" xml:space="preserve" xmlns:serif="http://www.serif.com/" style="fill-rule:evenodd;clip-rule:evenodd;stroke-linejoin:round;stroke-miterlimit:1.41421;"><path d="M85.367,54.036l100.925,961.062l754.427,0.29l85.808,-1026.59l-941.16,65.237Z" style="fill:#fff;"/><path d="M923.897,967.871l-725.215,6.744l-80.09,-883.641l867.245,-36.264l-61.94,913.161Zm-796.216,-868.936l78.607,867.275l709.817,-6.6l60.788,-896.186l-849.212,35.511Z"/><g><g><path d="M187.739,143.118c97.043,-15.521 190.008,49.611 207.47,145.357c17.462,95.746 -47.147,186.081 -144.191,201.602c-97.043,15.521 -190.008,-49.611 -207.47,-145.357c-17.462,-95.746 47.147,-186.081 144.191,-201.602Z" style="fill:#e62f00;"/><path d="M88.823,330.56l271.956,-25.238l-1.108,-9.92c0,0 -32.507,4.51 -32.754,2.911c-0.247,-1.599 -86.064,-117.11 -90.827,-117.936c-4.763,-0.827 -99.33,2.657 -103.127,4.382c-3.797,1.726 -13.259,11.823 -13.259,11.823c0,0 1.06,22.698 1.557,25.088c1.139,5.479 -64.065,-47.432 -66.382,-48.873c-2.317,-1.44 -18.069,65.16 69.704,84.877c0,0 11.116,60.127 4.577,62.48c-7.689,2.768 -32.002,1.599 -41.078,2.546c-0.207,0.021 0.741,7.86 0.741,7.86Z"/><path d="M316.605,299.173c0,0 -168.619,19.587 -172.45,18.417c-3.831,-1.17 -7.679,-43.922 -6.673,-43.727c1.006,0.196 143.93,-13.977 151.864,-9.803c8.166,4.295 26.498,35.792 27.259,35.113Z" style="fill:#f04d00;"/><path d="M144.868,248.784c0,0 -68.455,3.468 -84.458,-58.914c0,0 82.869,59.109 84.458,58.914Z" style="fill:#e62f00;"/><path d="M136.562,258.295l0.872,6.532l24.037,-0.375c0,0 -11.745,-7.86 -11.819,-7.885c-0.074,-0.025 -13.09,1.728 -13.09,1.728Z" style="fill:#e62f00;"/><circle cx="306.685" cy="361.733" r="31.121"/><circle cx="230.839" cy="372.807" r="34.76"/><path d="M131.824,229.815c0,0 29.455,21.383 42.139,31.846c4.275,3.527 100.029,-4.65 106.419,-8.448c4.614,-2.742 -41.635,-60.918 -47.447,-64.249c-2.737,-1.569 -92.924,2.63 -97.262,4.775c-4.337,2.146 -6.921,5.118 -8.229,7.107c-1.308,1.989 4.38,28.969 4.38,28.969Z" style="fill:#e62f00;"/><circle cx="306.571" cy="362.045" r="19.677" style="fill:#f04d00;"/><path d="M231.998,349.437c12.891,-0.972 24.145,8.705 25.117,21.595c0.972,12.891 -8.705,24.145 -21.595,25.117c-12.891,0.971 -24.145,-8.705 -25.117,-21.596c-0.972,-12.89 8.705,-24.145 21.595,-25.116Z" style="fill:#f04d00;"/><path d="M197.874,367.02l-78.324,-2.107l-1.386,7.831l80.459,5.911l-0.749,-11.635Z"/><path d="M274.276,380.854l25.862,56.493c0,0 -33.44,-2.978 -39.814,-3.112c-3.749,-0.079 -2.406,-6.986 -2.406,-6.986c0,0 2.461,-5.098 10.034,-4.567c8.184,0.574 18.817,9.109 20.969,5.825c-4.977,-15.297 -19.985,-38.583 -19.985,-38.583l5.34,-9.07Z"/></g></g><circle cx="549.054" cy="333.32" r="177.417" style="fill:#ffbe00;"/><path d="M444.874,338.277c0,0 -18.89,-91.607 37.287,-112.76c56.177,-21.152 120.283,-8.691 131.944,-4.74c11.662,3.95 53.279,34.215 50.053,100.763l-10.157,6.94l-4.415,-2.024l-11.333,5.441c0,0 -9.6,-1.338 -13.306,-3.657c-3.706,-2.318 -24.647,2.223 -24.647,2.223l-23.651,-4.176c0,0 -10.997,5.528 -16.418,4.521c-5.421,-1.007 -14.107,-1.845 -14.107,-1.845l-8.907,-3.417c0,0 -9.967,7.901 -11.651,7.27c-1.683,-0.632 -13.768,-5.488 -13.768,-5.488l-5.12,5.411c0,0 -14.692,-5.391 -16.286,-4.359c-1.594,1.031 -1.967,4.215 -1.967,4.215l-14.204,-4.587c0,0 -8.757,7.328 -10.049,7.637c-1.292,0.308 -7.887,-3.171 -7.887,-3.171c0,0 -11.805,5.796 -11.411,5.803Z"/><path d="M450.422,330.557c0,0 -17.543,-81.554 35.364,-100.559c52.907,-19.006 113.19,-8.089 124.151,-4.604c10.962,3.486 50.042,30.327 46.84,89.621l-7.519,6.198l-6.203,-1.777l-8.399,5.14c0,0 -12.596,-4.185 -13.782,-3.9c-4.105,0.987 -22.883,2.592 -22.883,2.592l-23.559,-3.772c0,0 -8.99,5.405 -14.088,4.523c-5.099,-0.882 -13.887,-1.87 -13.887,-1.87l-9.123,-3.2c0,0 -9.397,7.068 -10.979,6.51c-1.582,-0.558 -12.941,-4.849 -12.941,-4.849l-4.83,4.835c0,0 -13.809,-4.76 -15.312,-3.836c-1.503,0.923 -5.957,4.102 -5.957,4.102l-9.256,-4.387c0,0 -8.258,6.554 -9.474,6.832c-1.217,0.279 -7.413,-2.802 -7.413,-2.802c0,0 -11.121,5.198 -10.75,5.203Z" style="fill:#ffbe00;"/><path d="M613.379,321.174c0,0 5.281,-61.424 -3.478,-90.031c0,0 5.994,74.721 -3.118,88.287c-9.111,13.565 6.596,1.744 6.596,1.744Z"/><path d="M645.462,321.647c0,0 10.764,-27.141 -3.948,-62.188c-14.711,-35.048 11.719,50.102 1.017,61.729c-10.703,11.628 2.931,0.459 2.931,0.459Z"/><path d="M487.902,235.857c0,0 -24.783,12.585 -27.02,44.269c-0.764,10.823 1.103,23.874 7.486,39.412c1.412,3.438 0,0 0,0c0,0 -17.053,-57.016 19.534,-83.681Z"/><path d="M512.272,227.82c0,0 -57.009,23.345 -31.632,95.394c1.742,4.945 0,0 0,0c0,0 -15.413,-66.004 31.632,-95.394Z"/><path d="M531.611,223.749c0,0 -47.125,34.902 -38.184,98.127c0,0 7.155,12.308 16.347,2.885c-15.606,-27.008 -11.488,-40.839 -11.698,-43.821c-0.715,-10.134 16.994,-39.135 33.535,-57.191Z"/><path d="M575.648,320.632c0,0 -16.561,-34.319 -12.465,-39.455l12.465,39.455Z"/><path d="M538.941,321.805c0,0 -10.148,-81.651 3.865,-93.98l-9.097,96.675l5.232,-2.695Z"/><path d="M551.284,225.304c0,0 54.127,1.595 47.124,28.57c-7.256,-24.764 -35.706,-24.942 -47.124,-28.57Z"/><path d="M499.133,331.508l7.228,2.021l2.913,-2.776c0,0 -9.721,-16.818 -13.945,-37.022c-1.994,26.016 3.804,37.777 3.804,37.777Z" style="fill:#ffbe00;"/><g><g><path d="M549.83,350.476c0,-8.975 -7.286,-16.262 -16.262,-16.262l-37.742,0c-8.976,0 -16.263,7.287 -16.263,16.262l0,32.525c0,8.976 7.287,16.262 16.263,16.262l37.742,0c8.976,0 16.262,-7.286 16.262,-16.262l0,-32.525Z"/><path d="M542.498,353.87c0,-7.102 -5.766,-12.869 -12.868,-12.869l-29.866,0c-7.103,0 -12.869,5.767 -12.869,12.869l0,25.737c0,7.103 5.766,12.869 12.869,12.869l29.866,0c7.102,0 12.868,-5.766 12.868,-12.869l0,-25.737Z" style="fill:#78660e;"/></g><g><path d="M638.409,350.119c0,-8.976 -7.287,-16.263 -16.262,-16.263l-37.743,0c-8.975,0 -16.262,7.287 -16.262,16.263l0,32.525c0,8.975 7.287,16.262 16.262,16.262l37.743,0c8.975,0 16.262,-7.287 16.262,-16.262l0,-32.525Z"/><path d="M631.077,353.513c0,-7.103 -5.766,-12.869 -12.869,-12.869l-29.866,0c-7.102,0 -12.868,5.766 -12.868,12.869l0,25.737c0,7.102 5.766,12.868 12.868,12.868l29.866,0c7.103,0 12.869,-5.766 12.869,-12.868l0,-25.737Z" style="fill:#78660e;"/></g></g><path d="M557.915,366.694c0,0 -16.878,53.622 -17.426,77.544c-0.039,1.728 23.506,-2.277 29.595,-8.168c6.088,-5.892 -17.72,-3.063 -17.72,-3.063l9.832,-65.005l-4.281,-1.308Z"/><path d="M547.659,362.298c0,0 11.049,-6.406 23.312,0l0.787,-8.125c0,0 -14.642,-6.914 -24.664,0.847l0.565,7.278Z"/><ellipse cx="883.222" cy="321.583" rx="182.826" ry="182.821" style="fill:#22993b;"/><path d="M1078.93,294.696c0,0 -312.448,26.832 -312.748,18.998c-1.09,-28.479 -12.884,-131.718 84.332,-138.034c143.705,-9.337 131.201,114.486 131.201,114.486l91.782,-7.289c0,0 6.719,-0.784 5.433,11.839Z"/><path d="M975.352,290.428l-45.667,2.323c0,0 -7.889,-97.784 -52.715,-110.435c0,0 49.362,-7.831 79.81,37.52c24.048,35.819 18.572,70.592 18.572,70.592Z" style="fill:#229a36;"/><path d="M911.296,238.25c10.607,40.212 8.002,55.711 8.002,55.711c0,0 -93.085,9.892 -93.749,8.411c-20.042,-44.704 -2.466,-116.566 30.112,-117.589c20.617,-0.647 45.029,13.255 55.635,53.467Z" style="fill:#229a36;"/><path d="M818.699,304.793c0,0 -40.108,5.146 -46.286,2.737c-0.342,-13.774 -6.982,-80.868 23.868,-106.547c0,0 23.782,-19.769 45.25,-19.198c0,0 -50.72,29.509 -22.832,123.008Z" style="fill:#229a36;"/><path d="M871.677,189.179c1.349,0.161 2.313,1.386 2.152,2.735c-0.16,1.349 -1.386,2.313 -2.735,2.153c-1.348,-0.161 -2.313,-1.387 -2.152,-2.735c0.161,-1.349 1.386,-2.314 2.735,-2.153Z"/><path d="M844.243,190.655c1.373,0.164 2.367,1.314 2.217,2.566c-0.149,1.252 -1.385,2.136 -2.757,1.972c-1.373,-0.163 -2.366,-1.313 -2.217,-2.565c0.149,-1.252 1.385,-2.136 2.757,-1.973Z"/><path d="M828.761,185.108c1.372,0.163 2.366,1.313 2.216,2.565c-0.149,1.253 -1.384,2.136 -2.757,1.973c-1.373,-0.164 -2.366,-1.313 -2.217,-2.566c0.149,-1.252 1.385,-2.136 2.758,-1.972Z"/><path d="M864.293,177.53c0,0 3.814,-2.819 0.112,-4.809c-3.702,-1.99 -13.345,-0.675 -13.186,1.994c0.089,1.495 -1.276,6.26 13.074,2.815"/><path d="M1009.58,308.061l4.306,14.715l-49.466,6.224c0,0 -2.191,46.692 -3.732,51.152c-1.172,3.391 -2.621,22.649 -40.733,24.582c-20.861,1.058 -29.089,-7.642 -35.803,-14.915c-5.553,-6.014 -12.623,-24.522 -12.623,-24.522c0,0 3.62,43.701 -46.347,42.611c-49.967,-1.089 -55.537,-40.208 -56.376,-44.331c-1.789,-8.788 1.803,-34.73 1.803,-34.73l238.971,-20.786Z"/><path d="M774.864,336.541l181.741,-13.693l-0.69,41.977c0,0 1.941,38.369 -40.739,35.354c-38.703,-2.735 -42.164,-57.447 -42.164,-57.447l-5.41,0.99c0,0 6.614,65.038 -45.146,58.659c-64.305,-7.926 -47.592,-65.84 -47.592,-65.84Z" style="fill:#c6e48c;"/><path d="M941.756,321.968l-38.042,77.019l-8.502,-3.081l37.623,-75.462l8.921,1.524Z"/><path d="M846.312,329.13l-34.167,75.004l-8.052,-3.102l34.247,-73.734l7.972,1.832Z"/><path d="M833.379,327.957l-32.965,71.534l-5.898,-3.632l32.976,-68.321l5.887,0.419Z"/><path d="M957.403,316.792l-47.291,85.335l-4.485,-0.966l44.886,-86.099l6.89,1.73Z"/><path d="M864.209,383.927c0,0 -38.531,35.31 -15.707,52.342c10.841,8.09 20.293,-6.43 20.293,-6.43c-4.614,6.512 7.801,-8.769 13.308,-14.381c4.56,-4.646 10.861,-5.99 9.707,-8.868c-7.205,-17.97 -27.077,27.131 -38.897,22.658c-17.105,-6.472 14.734,-43.416 14.734,-43.416c0,0 -4.084,-1.348 -3.438,-1.905Z"/><path d="M890.59,182.945c1.23,0.147 2.129,1.11 2.005,2.149c-0.124,1.039 -1.223,1.764 -2.454,1.617c-1.23,-0.147 -2.129,-1.109 -2.005,-2.149c0.124,-1.039 1.223,-1.763 2.454,-1.617Z"/><g><path d="M356.826,591.495c-2.949,-10.691 -8.018,-19.032 -15.207,-25.022c-7.188,-5.991 -16.312,-8.986 -27.372,-8.986c-8.479,0 -15.76,1.751 -21.842,5.253c-6.083,3.502 -11.06,8.156 -14.931,13.963c-3.871,5.806 -6.728,12.349 -8.571,19.63c-1.843,7.281 -2.765,14.608 -2.765,21.981c0,7.557 0.876,14.93 2.627,22.119c1.751,7.189 4.562,13.64 8.433,19.354c3.871,5.714 8.847,10.276 14.93,13.686c6.083,3.41 13.456,5.115 22.119,5.115c12.35,0 22.257,-3.41 29.722,-10.23c7.466,-6.82 12.212,-16.22 14.24,-28.202l17.695,0c-1.475,7.926 -3.825,15.161 -7.051,21.705c-3.225,6.543 -7.373,12.165 -12.442,16.865c-5.069,4.701 -11.105,8.341 -18.109,10.922c-7.005,2.58 -15.023,3.871 -24.055,3.871c-11.428,0 -21.289,-1.936 -29.584,-5.807c-8.295,-3.871 -15.115,-9.17 -20.46,-15.898c-5.346,-6.728 -9.309,-14.7 -11.889,-23.916c-2.581,-9.216 -3.871,-19.078 -3.871,-29.584c0,-9.954 1.429,-19.492 4.286,-28.617c2.857,-9.124 7.05,-17.188 12.58,-24.192c5.53,-7.005 12.396,-12.58 20.598,-16.728c8.203,-4.147 17.649,-6.221 28.34,-6.221c16.589,0 29.999,3.963 40.229,11.889c10.23,7.926 16.635,20.276 19.216,37.05l-16.866,0Z" style="fill-rule:nonzero;"/><path d="M452.214,693.519c-9.216,-0.185 -17.833,-1.844 -25.851,-4.977c-8.018,-3.134 -15.023,-7.834 -21.013,-14.101c-5.991,-6.267 -10.737,-14.101 -14.239,-23.502c-3.503,-9.4 -5.254,-20.367 -5.254,-32.902c0,-10.506 1.383,-20.321 4.148,-29.445c2.765,-9.125 6.912,-17.097 12.442,-23.917c5.529,-6.82 12.442,-12.211 20.736,-16.174c8.295,-3.963 17.972,-5.945 29.031,-5.945c11.244,0 21.013,1.982 29.308,5.945c8.295,3.963 15.207,9.308 20.737,16.036c5.529,6.728 9.631,14.7 12.303,23.916c2.673,9.217 4.009,19.078 4.009,29.584c0,11.429 -1.566,21.751 -4.7,30.967c-3.133,9.216 -7.603,17.142 -13.41,23.778c-5.806,6.636 -12.81,11.751 -21.013,15.345c-8.202,3.594 -17.28,5.392 -27.234,5.392Zm48.662,-75.482c0,-8.479 -0.921,-16.404 -2.765,-23.777c-1.843,-7.373 -4.7,-13.779 -8.571,-19.216c-3.871,-5.438 -8.847,-9.724 -14.93,-12.857c-6.083,-3.134 -13.548,-4.7 -22.396,-4.7c-8.663,0 -16.082,1.705 -22.257,5.115c-6.175,3.41 -11.198,7.926 -15.068,13.548c-3.871,5.621 -6.728,12.073 -8.572,19.354c-1.843,7.281 -2.764,14.792 -2.764,22.533c0,8.848 1.059,17.004 3.179,24.47c2.12,7.465 5.207,13.87 9.262,19.215c4.056,5.346 9.125,9.493 15.207,12.442c6.083,2.95 13.087,4.424 21.013,4.424c8.664,0 16.083,-1.705 22.258,-5.115c6.174,-3.41 11.197,-7.972 15.068,-13.686c3.871,-5.714 6.728,-12.165 8.571,-19.354c1.844,-7.189 2.765,-14.654 2.765,-22.396Z" style="fill-rule:nonzero;"/><path d="M519.954,546.427l17.971,0l46.45,122.761l46.45,-122.761l17.972,0l-55.574,143.221l-18.525,0l-54.744,-143.221Z" style="fill-rule:nonzero;"/><path d="M763.263,608.084c0,-7.004 -0.968,-13.594 -2.903,-19.769c-1.936,-6.175 -4.793,-11.52 -8.571,-16.036c-3.779,-4.516 -8.526,-8.111 -14.24,-10.783c-5.714,-2.673 -12.257,-4.009 -19.63,-4.009c-7.373,0 -13.871,1.382 -19.493,4.147c-5.621,2.765 -10.414,6.451 -14.377,11.059c-3.963,4.609 -7.143,9.954 -9.539,16.037c-2.396,6.082 -3.963,12.534 -4.7,19.354l93.453,0Zm-93.453,13.824c0,7.742 1.014,15.069 3.041,21.981c2.028,6.912 5.023,12.903 8.986,17.972c3.963,5.069 8.986,9.124 15.069,12.165c6.082,3.042 13.087,4.562 21.013,4.562c10.875,0 20.183,-2.857 27.925,-8.571c7.742,-5.714 12.903,-13.824 15.483,-24.331l18.525,0c-2.028,6.82 -4.7,13.133 -8.018,18.94c-3.318,5.806 -7.465,10.875 -12.442,15.206c-4.977,4.332 -10.875,7.696 -17.695,10.092c-6.82,2.396 -14.746,3.595 -23.778,3.595c-11.428,0 -21.29,-1.936 -29.584,-5.807c-8.295,-3.871 -15.115,-9.17 -20.46,-15.898c-5.346,-6.728 -9.309,-14.654 -11.889,-23.778c-2.581,-9.124 -3.871,-18.939 -3.871,-29.446c0,-10.506 1.52,-20.368 4.562,-29.584c3.041,-9.216 7.373,-17.28 12.995,-24.192c5.622,-6.913 12.488,-12.35 20.598,-16.313c8.11,-3.963 17.327,-5.945 27.649,-5.945c19.723,0 35.206,6.774 46.45,20.322c11.244,13.548 16.773,33.225 16.589,59.03l-111.148,0Z" style="fill-rule:nonzero;"/><path d="M816.901,689.648l-16.589,0l0,-143.221l16.589,0l0,26.819l0.553,0c4.608,-11.428 10.553,-19.4 17.834,-23.916c7.281,-4.516 16.912,-6.774 28.893,-6.774l0,17.972c-9.401,-0.184 -17.143,1.29 -23.225,4.424c-6.083,3.133 -10.922,7.373 -14.516,12.718c-3.594,5.346 -6.083,11.659 -7.465,18.94c-1.382,7.28 -2.074,14.884 -2.074,22.81l0,70.228Z" style="fill-rule:nonzero;"/><path d="M273.88,844.204c0,8.663 1.06,16.728 3.18,24.193c2.119,7.465 5.207,13.916 9.262,19.354c4.055,5.438 9.124,9.723 15.207,12.857c6.082,3.133 12.995,4.7 20.736,4.7c7.005,0 13.456,-1.244 19.354,-3.733c5.899,-2.488 11.06,-6.128 15.484,-10.921c4.423,-4.792 7.88,-10.645 10.368,-17.557c2.488,-6.912 3.733,-14.884 3.733,-23.916c0.368,-9.032 -0.369,-17.465 -2.212,-25.299c-1.844,-7.833 -4.793,-14.7 -8.848,-20.598c-4.055,-5.898 -9.262,-10.553 -15.622,-13.963c-6.359,-3.41 -13.778,-5.115 -22.257,-5.115c-7.557,0 -14.331,1.613 -20.322,4.839c-5.99,3.226 -11.059,7.557 -15.206,12.995c-4.148,5.437 -7.327,11.797 -9.539,19.077c-2.212,7.281 -3.318,14.977 -3.318,23.087Zm0,72.163l-16.589,0l0,-199.071l16.589,0l0,78.799c5.345,-8.847 12.672,-15.529 21.981,-20.045c9.308,-4.516 19.031,-6.774 29.169,-6.774c10.875,0 20.322,2.074 28.34,6.221c8.018,4.147 14.654,9.677 19.907,16.589c5.253,6.912 9.17,14.977 11.751,24.193c2.58,9.216 3.871,18.801 3.871,28.755c0,10.506 -1.198,20.368 -3.595,29.584c-2.396,9.216 -6.221,17.188 -11.474,23.916c-5.253,6.728 -11.935,12.027 -20.045,15.898c-8.11,3.871 -17.972,5.806 -29.584,5.806c-4.608,0 -9.309,-0.645 -14.101,-1.935c-4.793,-1.29 -9.447,-3.134 -13.963,-5.53c-4.516,-2.396 -8.663,-5.391 -12.442,-8.986c-3.778,-3.594 -6.866,-7.788 -9.262,-12.58l-0.553,0l0,25.16Z" style="fill-rule:nonzero;"/><path d="M504.194,841.163c-7.004,2.949 -14.101,4.884 -21.29,5.806c-7.188,0.922 -14.377,1.659 -21.566,2.212c-12.718,0.922 -22.625,3.779 -29.722,8.571c-7.096,4.793 -10.645,12.073 -10.645,21.843c0,4.423 0.876,8.248 2.627,11.474c1.751,3.225 4.055,5.898 6.912,8.018c2.857,2.12 6.175,3.686 9.954,4.7c3.778,1.014 7.603,1.521 11.474,1.521c6.636,0 13.087,-0.83 19.354,-2.488c6.267,-1.659 11.843,-4.194 16.727,-7.604c4.885,-3.41 8.802,-7.742 11.751,-12.995c2.949,-5.253 4.424,-11.474 4.424,-18.663l0,-22.395Zm-27.925,-8.295c3.133,-0.368 6.866,-0.921 11.197,-1.659c4.332,-0.737 7.88,-1.751 10.645,-3.041c2.765,-1.29 4.47,-3.456 5.115,-6.498c0.645,-3.041 0.968,-5.852 0.968,-8.432c0,-8.479 -2.719,-15.438 -8.156,-20.875c-5.438,-5.438 -14.608,-8.157 -27.511,-8.157c-5.714,0 -10.967,0.507 -15.76,1.521c-4.792,1.014 -8.986,2.765 -12.58,5.253c-3.594,2.489 -6.543,5.807 -8.847,9.954c-2.305,4.147 -3.825,9.354 -4.563,15.621l-16.865,0c0.553,-8.479 2.488,-15.713 5.806,-21.704c3.318,-5.99 7.603,-10.875 12.857,-14.654c5.253,-3.778 11.336,-6.543 18.248,-8.294c6.912,-1.751 14.239,-2.627 21.981,-2.627c7.188,0 13.962,0.783 20.321,2.35c6.36,1.567 11.889,4.055 16.59,7.465c4.7,3.41 8.386,7.972 11.059,13.687c2.673,5.714 4.009,12.718 4.009,21.013l0,77.969c0,6.451 1.152,10.553 3.456,12.304c2.304,1.751 6.959,1.336 13.963,-1.244l0,12.994c-1.29,0.369 -3.18,0.922 -5.668,1.659c-2.488,0.738 -4.931,1.106 -7.327,1.106c-2.581,0 -5.069,-0.276 -7.465,-0.829c-2.765,-0.369 -4.977,-1.244 -6.636,-2.627c-1.659,-1.382 -2.995,-3.041 -4.009,-4.977c-1.014,-1.935 -1.705,-4.055 -2.074,-6.359c-0.368,-2.304 -0.553,-4.746 -0.553,-7.327c-7.004,7.742 -15.022,13.64 -24.054,17.696c-9.032,4.055 -18.801,6.082 -29.308,6.082c-6.267,0 -12.303,-0.829 -18.11,-2.488c-5.806,-1.659 -10.921,-4.24 -15.345,-7.742c-4.423,-3.502 -7.926,-7.788 -10.506,-12.856c-2.581,-5.069 -3.871,-11.106 -3.871,-18.11c0,-24.331 16.681,-38.709 50.044,-43.132l22.949,-3.042Z" style="fill-rule:nonzero;"/><path d="M566.957,916.367l-16.59,0l0,-143.22l16.59,0l0,19.907c6.635,-7.004 13.501,-12.718 20.598,-17.142c7.096,-4.424 15.621,-6.636 25.575,-6.636c8.848,0 17.05,1.521 24.607,4.562c7.558,3.041 13.917,8.341 19.078,15.898c3.502,5.161 5.576,10.461 6.221,15.898c0.645,5.438 0.968,11.106 0.968,17.004l0,93.729l-16.59,0l0,-93.452c0,-12.903 -2.857,-22.58 -8.571,-29.032c-5.714,-6.451 -15.206,-9.677 -28.478,-9.677c-5.161,0 -9.861,0.784 -14.101,2.351c-4.239,1.566 -8.064,3.64 -11.474,6.221c-3.41,2.58 -6.313,5.529 -8.709,8.847c-2.397,3.318 -4.24,6.82 -5.53,10.507c-1.659,4.608 -2.673,9.032 -3.041,13.271c-0.369,4.24 -0.553,8.848 -0.553,13.824l0,77.14Z" style="fill-rule:nonzero;"/><path d="M800.865,844.204c0,-8.11 -1.106,-15.806 -3.318,-23.087c-2.212,-7.28 -5.391,-13.64 -9.539,-19.077c-4.147,-5.438 -9.216,-9.769 -15.206,-12.995c-5.991,-3.226 -12.765,-4.839 -20.322,-4.839c-8.664,0 -16.129,1.705 -22.396,5.115c-6.267,3.41 -11.428,8.065 -15.483,13.963c-4.055,5.898 -7.004,12.765 -8.848,20.598c-1.843,7.834 -2.58,16.267 -2.212,25.299c0,9.032 1.245,17.004 3.733,23.916c2.488,6.912 5.945,12.765 10.368,17.557c4.424,4.793 9.585,8.433 15.484,10.921c5.898,2.489 12.349,3.733 19.354,3.733c7.741,0 14.654,-1.567 20.736,-4.7c6.083,-3.134 11.152,-7.419 15.207,-12.857c4.055,-5.438 7.143,-11.889 9.262,-19.354c2.12,-7.465 3.18,-15.53 3.18,-24.193Zm0,-126.908l16.589,0l0,199.071l-16.589,0l0,-25.16l-0.553,0c-2.396,4.792 -5.484,8.986 -9.262,12.58c-3.779,3.595 -7.926,6.59 -12.442,8.986c-4.516,2.396 -9.17,4.24 -13.963,5.53c-4.792,1.29 -9.493,1.935 -14.101,1.935c-11.612,0 -21.474,-1.935 -29.584,-5.806c-8.11,-3.871 -14.792,-9.17 -20.045,-15.898c-5.253,-6.728 -9.078,-14.7 -11.474,-23.916c-2.397,-9.216 -3.595,-19.078 -3.595,-29.584c0,-9.954 1.291,-19.539 3.871,-28.755c2.581,-9.216 6.498,-17.281 11.751,-24.193c5.253,-6.912 11.889,-12.442 19.907,-16.589c8.018,-4.147 17.465,-6.221 28.34,-6.221c10.138,0 19.861,2.258 29.169,6.774c9.309,4.516 16.636,11.198 21.981,20.045l0,-78.799Z" style="fill-rule:nonzero;"/></g></svg>