<?xml version="1.0" encoding="UTF-8" standalone="no"?><!DOCTYPE svg PUBLIC "-//W3C//DTD SVG 1.1//EN" "http://www.w3.org/Graphics/SVG/1.1/DTD/svg11.dtd"><svg width="100%" height="100%" viewBox="0 0 320 320" version="1.1" xmlns="http://www.w3.org/2000/svg" xmlns:xlink="http://www.w3.org/1999/xlink" xml:space="preserve" xmlns:serif="http://www.serif.com/" style="fill-rule:evenodd;clip-rule:evenodd;stroke-linejoin:round;stroke-miterlimit:1.41421;"><g><path d="M132.827,10.656c84.348,-13.491 165.151,43.121 180.328,126.341c15.178,83.22 -40.979,161.737 -125.327,175.228c-84.348,13.49 -165.151,-43.121 -180.328,-126.341c-15.178,-83.22 40.979,-161.738 125.327,-175.228Z" style="fill:#e62f00;"/><path d="M46.852,173.576l236.378,-21.936l-0.964,-8.622c0,0 -28.254,3.92 -28.469,2.53c-0.214,-1.39 -74.804,-101.789 -78.944,-102.507c-4.14,-0.719 -86.336,2.309 -89.636,3.808c-3.3,1.501 -11.524,10.277 -11.524,10.277c0,0 0.921,19.728 1.353,21.806c0.99,4.762 -55.684,-41.227 -57.698,-42.48c-2.013,-1.251 -15.705,56.636 60.585,73.773c0,0 9.662,52.261 3.979,54.306c-6.683,2.406 -27.816,1.39 -35.704,2.213c-0.18,0.019 0.644,6.832 0.644,6.832Z"/><path d="M244.835,146.295c0,0 -146.56,17.025 -149.89,16.008c-3.33,-1.017 -6.674,-38.176 -5.8,-38.007c0.874,0.171 125.101,-12.148 131.997,-8.52c7.097,3.733 23.031,31.109 23.693,30.519Z" style="fill:#f04d00;"/><path d="M95.565,102.498c0,0 -59.5,3.015 -73.409,-51.206c0,0 72.028,51.376 73.409,51.206Z" style="fill:#e62f00;"/><path d="M88.345,110.765l0.758,5.678l20.893,-0.326c0,0 -10.209,-6.832 -10.273,-6.854c-0.064,-0.022 -11.378,1.502 -11.378,1.502Z" style="fill:#e62f00;"/><circle cx="236.212" cy="200.671" r="27.05"/><circle cx="170.289" cy="210.296" r="30.213"/><path d="M84.227,86.011c0,0 25.602,18.586 36.626,27.68c3.716,3.065 86.943,-4.042 92.497,-7.343c4.011,-2.383 -36.188,-52.949 -41.239,-55.844c-2.379,-1.364 -80.768,2.286 -84.538,4.151c-3.77,1.865 -6.016,4.448 -7.153,6.177c-1.137,1.729 3.807,25.179 3.807,25.179Z" style="fill:#e62f00;"/><circle cx="236.113" cy="200.942" r="17.103" style="fill:#f04d00;"/><path d="M171.296,189.984c11.205,-0.845 20.986,7.566 21.831,18.769c0.845,11.205 -7.566,20.987 -18.77,21.832c-11.204,0.844 -20.986,-7.567 -21.831,-18.771c-0.845,-11.204 7.566,-20.986 18.77,-21.83Z" style="fill:#f04d00;"/><path d="M141.636,205.266l-68.077,-1.831l-1.205,6.806l69.933,5.138l-0.651,-10.113Z"/><path d="M208.043,217.291l22.479,49.102c0,0 -29.065,-2.589 -34.606,-2.705c-3.258,-0.069 -2.091,-6.072 -2.091,-6.072c0,0 2.139,-4.431 8.721,-3.97c7.114,0.499 16.356,7.918 18.226,5.063c-4.326,-13.295 -17.37,-33.535 -17.37,-33.535l4.641,-7.883Z"/></g></svg>